<mxfile host="65bd71144e">
    <diagram id="bpmyAJG3XC5yDAlS6uiS" name="Page-1">
        <mxGraphModel dx="592" dy="470" grid="1" gridSize="10" guides="1" tooltips="1" connect="1" arrows="1" fold="1" page="1" pageScale="1" pageWidth="850" pageHeight="1100" background="#ffffff" math="0" shadow="0">
            <root>
                <mxCell id="0"/>
                <mxCell id="1" parent="0"/>
                <mxCell id="14" value="" style="shape=internalStorage;whiteSpace=wrap;html=1;backgroundOutline=1;dx=220;dy=60;fillColor=none;strokeColor=#000000;fontColor=#000000;" parent="1" vertex="1">
                    <mxGeometry x="150" y="600" width="430" height="450" as="geometry"/>
                </mxCell>
                <mxCell id="15" value="Atrributes" style="text;html=1;strokeColor=#000000;fillColor=none;align=center;verticalAlign=middle;whiteSpace=wrap;rounded=0;fontColor=#000000;" parent="1" vertex="1">
                    <mxGeometry x="225" y="620" width="60" height="30" as="geometry"/>
                </mxCell>
                <mxCell id="16" value="Methods" style="text;html=1;strokeColor=#000000;fillColor=none;align=center;verticalAlign=middle;whiteSpace=wrap;rounded=0;fontColor=#000000;" parent="1" vertex="1">
                    <mxGeometry x="430" y="620" width="55" height="30" as="geometry"/>
                </mxCell>
                <mxCell id="17" value="" style="endArrow=none;html=1;fillColor=none;strokeColor=#000000;fontColor=#000000;" parent="1" target="14" edge="1">
                    <mxGeometry width="50" height="50" relative="1" as="geometry">
                        <mxPoint x="150" y="880" as="sourcePoint"/>
                        <mxPoint x="200" y="830" as="targetPoint"/>
                        <Array as="points">
                            <mxPoint x="580" y="880"/>
                        </Array>
                    </mxGeometry>
                </mxCell>
                <mxCell id="18" value="" style="endArrow=none;html=1;fillColor=none;strokeColor=#000000;fontColor=#000000;" parent="1" edge="1">
                    <mxGeometry width="50" height="50" relative="1" as="geometry">
                        <mxPoint x="150" y="910" as="sourcePoint"/>
                        <mxPoint x="580" y="910" as="targetPoint"/>
                        <Array as="points">
                            <mxPoint x="580" y="910"/>
                        </Array>
                    </mxGeometry>
                </mxCell>
                <mxCell id="19" value="Responsibi;ity" style="text;html=1;strokeColor=#000000;fillColor=none;align=center;verticalAlign=middle;whiteSpace=wrap;rounded=0;fontColor=#000000;" parent="1" vertex="1">
                    <mxGeometry x="197.5" y="880" width="115" height="30" as="geometry"/>
                </mxCell>
                <mxCell id="20" value="Collaborator" style="text;html=1;strokeColor=#000000;fillColor=none;align=center;verticalAlign=middle;whiteSpace=wrap;rounded=0;fontColor=#000000;" parent="1" vertex="1">
                    <mxGeometry x="430" y="880" width="115" height="30" as="geometry"/>
                </mxCell>
                <mxCell id="21" value="&lt;font style=&quot;font-size: 18px;&quot;&gt;-adminID&lt;br&gt;-username&lt;br&gt;-email&lt;br&gt;-password&lt;br&gt;&lt;/font&gt;" style="text;html=1;strokeColor=#000000;fillColor=none;align=left;verticalAlign=middle;whiteSpace=wrap;rounded=0;fontColor=#000000;" parent="1" vertex="1">
                    <mxGeometry x="150" y="660" width="220" height="190" as="geometry"/>
                </mxCell>
                <mxCell id="22" value="&lt;span style=&quot;font-size: 18px;&quot;&gt;+manageInventory()&lt;br&gt;&lt;br&gt;+processOrder()&lt;br&gt;&lt;br&gt;+viewUserActivity()&lt;br&gt;&lt;/span&gt;" style="text;html=1;strokeColor=#000000;fillColor=none;align=left;verticalAlign=middle;whiteSpace=wrap;rounded=0;fontColor=#000000;" parent="1" vertex="1">
                    <mxGeometry x="370" y="660" width="210" height="190" as="geometry"/>
                </mxCell>
                <mxCell id="23" value="&lt;span style=&quot;font-size: 18px;&quot;&gt;1. manage inventory&lt;br&gt;2. process order&lt;br&gt;3. view user activity&lt;br&gt;4. manage user accounts&lt;br&gt;&lt;/span&gt;" style="text;html=1;strokeColor=#000000;fillColor=none;align=left;verticalAlign=middle;whiteSpace=wrap;rounded=0;fontColor=#000000;" parent="1" vertex="1">
                    <mxGeometry x="150" y="910" width="220" height="140" as="geometry"/>
                </mxCell>
                <mxCell id="24" value="&lt;font style=&quot;font-size: 18px;&quot;&gt;-Product&lt;br&gt;-Order&lt;br&gt;-User&lt;br&gt;-User&lt;br&gt;&lt;/font&gt;" style="text;html=1;strokeColor=#000000;fillColor=none;align=left;verticalAlign=middle;whiteSpace=wrap;rounded=0;fontColor=#000000;" parent="1" vertex="1">
                    <mxGeometry x="370" y="910" width="200" height="140" as="geometry"/>
                </mxCell>
            </root>
        </mxGraphModel>
    </diagram>
</mxfile>